<svg xmlns="http://www.w3.org/2000/svg" width="26" height="26" id="calender"><path d="M13.002 0C5.828 0 0 5.824 0 12.998 0 20.172 5.828 26 13.002 26S26 20.172 26 12.998 20.176 0 13.002 0zm0 1A11.99 11.99 0 0 1 25 12.998c0 6.633-5.365 12-11.998 12-6.633 0-12.002-5.367-12.002-12S6.369 1 13.002 1zM9.334 7A.334.334 0 0 0 9 7.334V8h1v-.666A.334.334 0 0 0 9.666 7h-.332zm6 0a.334.334 0 0 0-.334.334V8h1v-.666A.334.334 0 0 0 15.666 7h-.332zM8 9v1h9V9H8zm0 2v7h9v-7H8zm1 1h1v1H9v-1zm2 0h1v1h-1v-1zm2 0h1v1h-1v-1zm2 0h1v1h-1v-1zm-6 2h1v1H9v-1zm2 0h1v1h-1v-1zm2 0h1v1h-1v-1zm2 0h1v1h-1v-1zm-6 2h1v1H9v-1zm2 0h1v1h-1v-1zm2 0h1v1h-1v-1z" color="#000" font-family="sans-serif" font-weight="400" overflow="visible" style="line-height:normal;text-indent:0;text-align:start;text-decoration-line:none;text-decoration-style:solid;text-decoration-color:#000;text-transform:none;block-progression:tb;isolation:auto;mix-blend-mode:normal;marker:none"></path></svg>