<svg xmlns="http://www.w3.org/2000/svg" enable-background="new 0 0 64 64" version="1.0" viewBox="0 0 64 64" id="calender"><path d="M48.63,9.53h-0.95V8.31c0-0.55-0.45-1-1-1s-1,0.45-1,1v1.22h-1.58V8.31c0-0.55-0.45-1-1-1s-1,0.45-1,1v1.22H21.69V8.31
		c0-0.55-0.45-1-1-1c-0.55,0-1,0.45-1,1v1.22H18.1V8.31c0-0.55-0.45-1-1-1s-1,0.45-1,1v1.22h-0.73c-3.84,0-6.96,3.12-6.96,6.96
		v33.25c0,3.84,3.12,6.96,6.96,6.96h33.25c3.84,0,6.96-3.12,6.96-6.96V16.48C55.58,12.65,52.46,9.53,48.63,9.53z M15.37,11.53h0.73
		v1.22c0,0.55,0.45,1,1,1s1-0.45,1-1v-1.22h1.58v1.22c0,0.55,0.45,1,1,1c0.55,0,1-0.45,1-1v-1.22h20.41v1.22c0,0.55,0.45,1,1,1
		s1-0.45,1-1v-1.22h1.58v1.22c0,0.55,0.45,1,1,1s1-0.45,1-1v-1.22h0.95c2.73,0,4.96,2.22,4.96,4.96v3.38H10.42v-3.38
		C10.42,13.75,12.64,11.53,15.37,11.53z M48.63,54.69H15.37c-2.73,0-4.96-2.22-4.96-4.96V30.67h4.4c0.55,0,1-0.45,1-1s-0.45-1-1-1
		h-4.4v-2.6h6.4c0.55,0,1-0.45,1-1s-0.45-1-1-1h-6.4v-2.21h43.17v27.88C53.58,52.47,51.36,54.69,48.63,54.69z"></path><path d="M26.97 43.26c-.55 0-1 .45-1 1v3.72l-3.27-4.32c-.26-.34-.71-.48-1.12-.35-.41.14-.68.52-.68.95v6.7c0 .55.45 1 1 1s1-.45 1-1v-3.72l3.27 4.32c.19.25.49.4.8.4.11 0 .21-.02.32-.05.41-.14.68-.52.68-.95v-6.7C27.97 43.71 27.53 43.26 26.97 43.26zM34.35 43.26h-4.28c-.55 0-1 .45-1 1v6.7c0 .55.45 1 1 1h4.28c.55 0 1-.45 1-1v-6.7C35.35 43.71 34.9 43.26 34.35 43.26zM33.35 49.96h-2.28v-4.7h2.28V49.96zM42.44 43.32c-.52-.19-1.09.08-1.28.6l-1.53 4.18-1.58-4.19c-.2-.52-.77-.78-1.29-.58-.52.2-.78.77-.58 1.29l2.53 6.7c.15.39.52.65.94.65 0 0 0 0 0 0 .42 0 .79-.26.93-.66l2.46-6.7C43.22 44.09 42.96 43.51 42.44 43.32zM25.77 29.56c.47.28 1.09.13 1.37-.34l.27-.45v8.65h-1.02c-.55 0-1 .45-1 1s.45 1 1 1h4.04c.55 0 1-.45 1-1s-.45-1-1-1h-1.02V25.17c0-.45-.3-.84-.73-.96-.43-.12-.89.06-1.12.45l-2.13 3.53C25.15 28.66 25.3 29.27 25.77 29.56zM33.05 29.45c.47.28 1.09.13 1.37-.34l.27-.45v8.65h-1.02c-.55 0-1 .45-1 1s.45 1 1 1h4.04c.55 0 1-.45 1-1s-.45-1-1-1h-1.02V25.07c0-.45-.3-.84-.73-.96-.43-.12-.89.06-1.12.45l-2.13 3.53C32.42 28.55 32.58 29.17 33.05 29.45zM49.96 27.22l-2.33-.34-1.04-2.11c-.23-.47-.99-.47-1.22 0l-1.04 2.11L42 27.22c-.26.04-.47.22-.55.46s-.01.52.17.7l1.69 1.64-.4 2.32c-.04.26.06.51.27.67.21.15.49.17.72.05l2.08-1.1 2.08 1.1c.1.05.21.08.32.08.14 0 .28-.04.4-.13.21-.15.31-.41.27-.67l-.4-2.32 1.69-1.64c.19-.18.25-.45.17-.7S50.22 27.26 49.96 27.22zM47.45 29.3c-.16.16-.23.38-.2.6l.23 1.31L46.3 30.6c-.1-.05-.21-.08-.32-.08s-.22.03-.32.08l-1.18.62.23-1.31c.04-.22-.04-.45-.2-.6l-.96-.93 1.32-.19c.22-.03.41-.17.51-.37l.59-1.2.59 1.2c.1.2.29.34.51.37l1.32.19L47.45 29.3z"></path></svg>