<?xml version="1.0" standalone="no"?>
<!DOCTYPE svg PUBLIC "-//W3C//DTD SVG 20010904//EN" "http://www.w3.org/TR/2001/REC-SVG-20010904/DTD/svg10.dtd">
<svg version="1.0" xmlns="http://www.w3.org/2000/svg" width="92.000000pt" height="88.000000pt"
  viewBox="0 0 92.000000 88.000000" preserveAspectRatio="xMidYMid meet">

  <g transform="translate(0.000000,88.000000) scale(0.100000,-0.100000)" fill="#000000" stroke="none">
    <path d="M2 443 l3 -438 424 -3 425 -2 33 32 33 32 -2 406 -3 405 -458 3 -457
2 2 -437z m623 241 c70 -33 95 -98 95 -245 0 -156 -36 -224 -133 -250 -24 -6
-91 -9 -157 -7 -129 3 -167 18 -207 76 -39 59 -44 279 -8 355 22 47 68 78 129
88 78 12 240 3 281 -17z" />
    <path d="M335 564 c-37 -38 8 -103 59 -85 28 11 35 70 10 88 -24 18 -49 16
-69 -3z" />
    <path d="M539 417 c-9 -7 -21 -21 -27 -33 -6 -12 -26 -28 -43 -37 -29 -14 -35
-14 -66 1 -31 15 -35 15 -60 -4 -39 -29 -50 -51 -35 -66 9 -9 52 -13 147 -13
124 0 136 2 156 21 30 30 30 86 -1 119 -26 27 -46 31 -71 12z" />
  </g>
</svg>