<svg xmlns="http://www.w3.org/2000/svg" viewBox="0 0 24 24" id="compass"><path fill="#7C4C0F" d="M12 3c-4.962 0-9 4.038-9 9s4.038 9 9 9 9-4.038 9-9-4.038-9-9-9zm0 17c-4.411 0-8-3.589-8-8s3.589-8 8-8 8 3.589 8 8-3.589 8-8 8z"></path><path fill="#F2F2F2" d="M8.916 9.659l.743-.743L12 0l2.341 8.916.743.743L24 12l-8.916 2.341-.743.743L12 24l-2.341-8.916-.743-.743L0 12z"></path><path d="M14.713 9.287l.371.372L24 12H12zM9.287 9.287l.372-.371L12 0v12zM0 12h12l-2.713 2.713-.371-.372zM14.713 14.713l-.372.371L12 24V12z" opacity=".5"></path><path fill="#F2F2F2" d="M17 7l-5 2.771L7 7l2.771 5L7 17l5-2.771L17 17l-2.771-5z"></path><path d="M7 7l2.771 5H12zM17 7l-5 2.771V12zM7 17l5-2.771V12zM12 12l5 5-2.771-5z" opacity=".5"></path><linearGradient id="a" x1="2.143" x2="21.857" y1="7.404" y2="16.596" gradientUnits="userSpaceOnUse"><stop offset="0" stop-color="#FFF" stop-opacity=".2"></stop><stop offset="1" stop-color="#FFF" stop-opacity="0"></stop></linearGradient><path fill="url(#a)" d="M20.96 12.798L24 12l-3.04-.798a9.008 9.008 0 0 0-8.162-8.162L12 0l-.798 3.04a9.008 9.008 0 0 0-8.162 8.162L0 12l3.04.798a9.008 9.008 0 0 0 8.162 8.162L12 24l.798-3.04a9.008 9.008 0 0 0 8.162-8.162zm-1.04-1.87L15.47 9.76 17 7l-2.76 1.53-1.168-4.45a8.006 8.006 0 0 1 6.848 6.848zM10.928 4.08L9.76 8.53 7 7l1.53 2.76-4.45 1.168a8.006 8.006 0 0 1 6.848-6.848zM4.08 13.072l4.45 1.168L7 17l2.76-1.53 1.168 4.45a8.006 8.006 0 0 1-6.848-6.848zm8.992 6.848l1.168-4.45L17 17l-1.53-2.76 4.45-1.168a8.006 8.006 0 0 1-6.848 6.848z"></path></svg>