<svg xmlns="http://www.w3.org/2000/svg" width="24" height="24" id="location"><path d="M19.7 23.5H4.3c-2.1 0-3.8-1.7-3.8-3.8V4.3C.5 2.2 2.2.5 4.3.5h15.3c2.1 0 3.8 1.7 3.8 3.8v15.3c.1 2.2-1.6 3.9-3.7 3.9zM4.3 1.5c-1.6 0-2.8 1.3-2.8 2.8v15.3c0 1.6 1.3 2.8 2.8 2.8h15.3c1.6 0 2.8-1.3 2.8-2.8V4.3c0-1.6-1.3-2.8-2.8-2.8H4.3z"></path><path d="M12 20.2c-1.6 0-6.4-5.2-6.4-9.8 0-3.6 2.9-6.5 6.4-6.5 3.5 0 6.4 2.9 6.4 6.5 0 4.5-4.8 9.8-6.4 9.8zm0-15.4c-3 0-5.4 2.5-5.4 5.5 0 4.1 4.5 8.8 5.4 8.8.9-.1 5.4-4.7 5.4-8.8 0-3-2.4-5.5-5.4-5.5zm0 9.7c-2.3 0-4.1-1.9-4.1-4.1 0-.9.3-1.7.8-2.4.1-.2.3-.3.5-.3.2.1.4.3.4.5 0 .5.4.9.9.9s.9-.4.9-1c0-.4-.2-.7-.5-.9-.2-.1-.3-.3-.3-.5s.2-.4.4-.4c.3-.1.6-.1.9-.1 2.3 0 4.1 1.9 4.1 4.1.1 2.3-1.8 4.2-4 4.2zM9.1 9.4c-.1.3-.2.6-.2.9 0 1.7 1.4 3.1 3.1 3.1 1.7 0 3.1-1.4 3.1-3.1 0-1.6-1.2-3-2.8-3.1.1.3.2.6.2.9 0 1.1-.9 2-1.9 2-.7 0-1.2-.3-1.5-.7z"></path></svg>